<svg xmlns="http://www.w3.org/2000/svg" width="24" height="24" viewBox="0 0 24 24" fill="none">
    <path d="M12 4C13.933 4 15.5 5.567 15.5 7.5C15.5 9.433 13.933 11 12 11C10.067 11 8.5 9.433 8.5 7.5C8.5 5.567 10.067 4 12 4ZM12 13C15.0375 13 17.5 10.5375 17.5 7.5C17.5 4.4625 15.0375 2 12 2C8.9625 2 6.5 4.4625 6.5 7.5C6.5 10.5375 8.9625 13 12 13ZM16.5 14.9375C16.3125 14.875 16.125 14.9375 16 15.0625L13.375 16.6875C12.9375 16.9375 12.4375 17.0625 12 17.0625C11.5 17.0625 11.0625 16.9375 10.625 16.6875L8 15.0625C7.8125 14.9375 7.625 14.875 7.5 14.9375C6.5625 15.3125 5.6875 15.8125 4.9375 16.4375C4.75 16.5625 4.6875 16.8125 4.8125 17L6.5625 19.8125C6.6875 20 6.9375 20.0625 7.125 19.9375L8.5625 19.125C8.75 19 8.9375 19.0625 9.0625 19.1875L11.5 21.625C11.75 21.875 12.1875 21.875 12.4375 21.625L14.875 19.1875C15 19.0625 15.1875 19 15.375 19.125L16.8125 19.9375C17 20.0625 17.25 20 17.375 19.8125L19.125 17C19.25 16.8125 19.1875 16.5625 19 16.4375C18.25 15.8125 17.375 15.3125 16.5 14.9375Z" fill="#FF5722"/>
</svg> 