<svg xmlns="http://www.w3.org/2000/svg" width="24" height="24" viewBox="0 0 24 24" fill="none">
    <path d="M20.9999 7.79999C21.0999 7.39999 20.9999 7.09999 20.4999 7.09999H18.4999C18.0999 7.09999 17.8999 7.39999 17.7999 7.69999C17.7999 7.69999 16.7999 10.2 15.2999 11.8C14.8999 12.2 14.6999 12.3 14.4999 12.3C14.3999 12.3 14.1999 12.2 14.1999 11.8V7.79999C14.1999 7.39999 14.0999 7.09999 13.6999 7.09999H10.4999C10.1999 7.09999 9.99994 7.29999 9.99994 7.59999C9.99994 7.99999 10.7999 8.09999 10.8999 9.49999V12.4C10.8999 12.9 10.7999 13 10.5999 13C9.79994 13 7.99994 10.5 6.99994 7.89999C6.79994 7.29999 6.59994 7.09999 6.19994 7.09999H4.19994C3.69994 7.09999 3.59994 7.39999 3.59994 7.69999C3.59994 8.09999 4.39994 10.6 6.89994 13.9C8.59994 16.2 10.9999 17.5 13.1999 17.5C14.5999 17.5 14.7999 17.2 14.7999 16.8V15C14.7999 14.5 14.8999 14.4 15.2999 14.4C15.4999 14.4 15.9999 14.5 17.1999 15.7C18.5999 17.1 18.7999 17.5 19.3999 17.5H21.3999C21.8999 17.5 22.1999 17.2 21.9999 16.8C21.7999 16.4 21.1999 15.6 20.3999 14.7C19.9999 14.2 19.3999 13.7 19.1999 13.4C18.9999 13.2 19.0999 13 19.1999 12.8C19.1999 12.8 21.5999 9.39999 20.9999 7.79999Z" fill="#FF5722"/>
</svg> 