<svg xmlns="http://www.w3.org/2000/svg" width="24" height="24" viewBox="0 0 24 24" fill="none">
    <path d="M21.5999 7.20001C21.3999 6.40001 20.7999 5.80001 19.9999 5.60001C18.3999 5.20001 11.9999 5.20001 11.9999 5.20001C11.9999 5.20001 5.59994 5.20001 3.99994 5.60001C3.19994 5.80001 2.59994 6.40001 2.39994 7.20001C1.99994 8.80001 1.99994 12 1.99994 12C1.99994 12 1.99994 15.2 2.39994 16.8C2.59994 17.6 3.19994 18.2 3.99994 18.4C5.59994 18.8 11.9999 18.8 11.9999 18.8C11.9999 18.8 18.3999 18.8 19.9999 18.4C20.7999 18.2 21.3999 17.6 21.5999 16.8C21.9999 15.2 21.9999 12 21.9999 12C21.9999 12 21.9999 8.80001 21.5999 7.20001ZM9.99994 15.2V8.80001L15.1999 12L9.99994 15.2Z" fill="#FF5722"/>
</svg> 